# xmcd
#
# Track frame offsets: 
#        150
#        17223
#        38034
#        58920
#        78817
#        94027
#        112174
#        129571
#        145515
#        158324
#        175420
#        198988
#        219060
#
# Disc length: 3120 seconds
#
# Revision: 1
# Processed by: cddbd v1.5.2PL0 Copyright (c) Steve Scherf et al.
# Submitted via: ExactAudioCopy v0.99pb5
#
DISCID=a30c2e0d
DTITLE=Various Artist - Legends Of Jazz
DYEAR=1900
DGENRE=Jazz
TTITLE0=Take Five - Al Jarreau and Kurt Elling
TTITLE1=My Funny Valentine - Chris Botti
TTITLE2=The Panther - Marcus Miller, George Duke, Lee Ritenour
TTITLE3=Senor Blues - David Sanborn, Phil Woods
TTITLE4=Armando's Rhumba - Chick Corea
TTITLE5=12 Year Old Boy - Robert Cray, Keb'Mo'
TTITLE6=Killer Joe - Benny Golson
TTITLE7=The Island - Ivan Lins - Brock Walsh
TTITLE8=Mumbles - Clark Terry
TTITLE9=They Can't Take That Away From Me - Jane Monheit, John Pizzare
TTITLE9=lli
TTITLE10=Obsession - Dave Valentin
TTITLE11=Take The 'a' Train - Dave Brubeck, Billy Taylor
TTITLE12=Dear Lordb - Ramsey Lewis
EXTD=
EXTT0=
EXTT1=
EXTT2=
EXTT3=
EXTT4=
EXTT5=
EXTT6=
EXTT7=
EXTT8=
EXTT9=
EXTT10=
EXTT11=
EXTT12=
PLAYORDER=
